<svg width="252" height="70" viewBox="0 0 252 70" fill="none" xmlns="http://www.w3.org/2000/svg">
<circle cx="35" cy="35" r="35" fill="#FFCC06"/>
<path d="M52.6708 19.0489C47.1334 16.8578 40.86 15.6504 35.0039 15.6504C28.9751 15.6504 22.6922 16.8389 17.3085 18.9948C15.383 19.7755 15.052 21.1517 15.3839 22.178L15.77 23.1436C15.8457 23.3327 15.9587 23.5046 16.1023 23.6491C16.2459 23.7936 16.4171 23.9077 16.6057 23.9846C16.7943 24.0615 16.9965 24.0997 17.2002 24.0968C17.4039 24.0939 17.6049 24.0501 17.7913 23.9679C18.8156 23.5164 20.061 22.9681 20.3522 22.8505C24.5266 21.1176 29.6116 20.2032 35.0456 20.2032C40.4967 20.2032 45.298 21.0797 49.7247 22.8828C50.144 23.0535 51.1361 23.4917 52.207 23.9698C52.393 24.0528 52.5938 24.0976 52.7974 24.1014C53.0011 24.1053 53.2034 24.0681 53.3924 23.992C53.5813 23.916 53.7531 23.8027 53.8973 23.6589C54.0416 23.5151 54.1554 23.3437 54.232 23.155L54.5849 22.29L54.6171 22.2046C54.9444 21.2362 54.6304 19.8286 52.6708 19.0489V19.0489Z" fill="#FFF8F2"/>
<path d="M49.5749 25.9759C45.2582 24.2372 39.9475 23.2385 35.0039 23.2385C30.0154 23.2417 25.0709 24.1709 20.4215 25.9787C20.3713 25.9986 20.2261 26.0622 20.0146 26.157C19.8317 26.239 19.6669 26.3564 19.5296 26.5023C19.3924 26.6483 19.2854 26.8201 19.2148 27.0077C19.1443 27.1952 19.1116 27.3949 19.1186 27.5952C19.1256 27.7955 19.1723 27.9924 19.2558 28.1745C19.6352 29.0007 20.1493 30.1265 20.726 31.389C23.8475 38.2249 29.6591 50.9349 32.3196 56.4363C32.5661 56.9495 32.953 57.3823 33.4355 57.6845C33.918 57.9867 34.4763 58.1459 35.0456 58.1436C35.6159 58.1459 36.1751 57.9861 36.6581 57.6828C37.141 57.3795 37.5279 56.9453 37.7736 56.4306L37.7792 56.4183L50.8023 28.1935C50.8884 28.0088 50.9364 27.8086 50.9432 27.6049C50.95 27.4012 50.9155 27.1982 50.8419 27.0082C50.7683 26.8181 50.657 26.6449 50.5147 26.499C50.3725 26.353 50.2022 26.2374 50.0141 26.1589C49.7997 26.0688 49.6489 26.0062 49.5872 25.9816L49.5749 25.9759ZM29.1725 33.8551C28.5566 33.8953 27.9432 33.7468 27.4139 33.4293C26.8846 33.1119 26.4647 32.6407 26.2101 32.0785C25.9555 31.5163 25.8783 30.8899 25.9888 30.2827C26.0994 29.6755 26.3923 29.1165 26.8287 28.6801C27.2651 28.2437 27.8242 27.9507 28.4314 27.8402C29.0385 27.7296 29.665 27.8068 30.2272 28.0614C30.7894 28.3161 31.2606 28.736 31.578 29.2653C31.8954 29.7945 32.0439 30.408 32.0038 31.0238C31.9558 31.759 31.6421 32.4516 31.1212 32.9726C30.6003 33.4935 29.9076 33.8072 29.1725 33.8551ZM35.2429 45.9961C34.6271 46.0362 34.0136 45.8877 33.4844 45.5703C32.9551 45.2529 32.5352 44.7816 32.2805 44.2195C32.0259 43.6573 31.9487 43.0308 32.0593 42.4236C32.1698 41.8165 32.4628 41.2574 32.8992 40.821C33.3356 40.3846 33.8947 40.0916 34.5018 39.9811C35.109 39.8706 35.7354 39.9478 36.2976 40.2024C36.8598 40.457 37.331 40.8769 37.6484 41.4062C37.9659 41.9355 38.1144 42.5489 38.0742 43.1648C38.0263 43.8999 37.7126 44.5925 37.1917 45.1135C36.6707 45.6344 35.9781 45.9481 35.2429 45.9961ZM41.3134 35.3727C40.6975 35.4129 40.0841 35.2644 39.5548 34.947C39.0255 34.6295 38.6056 34.1583 38.351 33.5961C38.0964 33.034 38.0192 32.4075 38.1297 31.8003C38.2403 31.1932 38.5333 30.6341 38.9697 30.1977C39.4061 29.7613 39.9651 29.4683 40.5723 29.3578C41.1795 29.2473 41.8059 29.3244 42.3681 29.5791C42.9303 29.8337 43.4015 30.2536 43.7189 30.7829C44.0363 31.3121 44.1849 31.9256 44.1447 32.5414C44.0968 33.2766 43.7831 33.9692 43.2621 34.4902C42.7412 35.0111 42.0486 35.3248 41.3134 35.3727V35.3727Z" fill="#FFF8F2"/>
<path d="M99.408 22.4544L106.749 21.4624L103.227 38.0288C104.814 37.8965 106.269 37.2021 107.592 35.9456C108.948 34.6891 110.006 33.1349 110.766 31.2832C111.527 29.4315 111.907 27.6128 111.907 25.8272C111.907 23.8432 111.395 22.2229 110.37 20.9664C109.345 19.7099 107.807 19.0816 105.757 19.0816C101.723 19.0816 98.5648 20.1397 96.2832 22.256C94.0347 24.3723 92.9104 27.3317 92.9104 31.1344C92.9104 32.3579 93.0261 33.2176 93.2576 33.7136C93.4891 34.1765 93.6048 34.4411 93.6048 34.5072C91.8192 34.5072 90.48 34.1435 89.5872 33.416C88.7275 32.6555 88.2976 31.4155 88.2976 29.696C88.2976 27.5797 89.1573 25.5296 90.8768 23.5456C92.6293 21.5285 94.8613 19.9083 97.5728 18.6848C100.284 17.4283 102.996 16.8 105.707 16.8C108.319 16.8 110.502 17.2464 112.254 18.1392C114.007 19.032 115.297 20.2224 116.123 21.7104C116.983 23.1653 117.413 24.7856 117.413 26.5712C117.413 28.7205 116.818 30.8203 115.627 32.8704C114.47 34.9205 112.8 36.6069 110.618 37.9296C108.435 39.2192 105.922 39.864 103.078 39.864H102.83L99.8048 54H92.6624L99.408 22.4544ZM124.716 26.5216C123.625 26.5216 122.699 26.1413 121.938 25.3808C121.178 24.6203 120.798 23.6944 120.798 22.6032C120.798 21.512 121.178 20.5861 121.938 19.8256C122.699 19.032 123.625 18.6352 124.716 18.6352C125.807 18.6352 126.733 19.032 127.494 19.8256C128.287 20.5861 128.684 21.512 128.684 22.6032C128.684 23.6944 128.287 24.6203 127.494 25.3808C126.733 26.1413 125.807 26.5216 124.716 26.5216ZM121.343 54.2976C119.756 54.2976 118.466 53.8016 117.474 52.8096C116.515 51.8176 116.036 50.3296 116.036 48.3456C116.036 47.5189 116.168 46.4443 116.433 45.1216L119.806 29.2H126.948L123.377 46.064C123.245 46.56 123.178 47.0891 123.178 47.6512C123.178 48.3125 123.327 48.792 123.625 49.0896C123.955 49.3541 124.485 49.4864 125.212 49.4864C125.807 49.4864 126.336 49.3872 126.799 49.1888C126.667 50.8421 126.072 52.1152 125.014 53.008C123.989 53.8677 122.765 54.2976 121.343 54.2976ZM139.447 31.8784H136.67C135.744 31.8784 135.049 31.928 134.586 32.0272C134.157 32.1264 133.942 32.3413 133.942 32.672C133.942 32.7381 134.024 32.8208 134.19 32.92C134.388 32.9861 134.487 33.2672 134.487 33.7632C134.487 34.6229 134.223 35.2843 133.694 35.7472C133.165 36.1771 132.536 36.392 131.809 36.392C131.181 36.392 130.635 36.2101 130.172 35.8464C129.742 35.4496 129.527 34.904 129.527 34.2096C129.527 33.5152 129.759 32.7712 130.222 31.9776C130.718 31.184 131.395 30.5227 132.255 29.9936C133.148 29.4645 134.157 29.2 135.281 29.2H148.028L135.876 50.1808C136.074 50.1808 136.438 50.2139 136.967 50.28C138.091 50.4123 138.984 50.4784 139.646 50.4784C141.067 50.4784 141.845 50.1477 141.977 49.4864C141.679 49.4533 141.448 49.3541 141.282 49.1888C141.117 48.9904 141.034 48.7424 141.034 48.4448C141.034 47.9157 141.282 47.4363 141.778 47.0064C142.274 46.5435 142.952 46.312 143.812 46.312C144.539 46.312 145.085 46.5269 145.449 46.9568C145.813 47.3867 145.994 47.9653 145.994 48.6928C145.994 49.4864 145.746 50.2965 145.25 51.1232C144.754 51.9499 144.043 52.6443 143.118 53.2064C142.192 53.7355 141.134 54 139.943 54H126.799L139.447 31.8784ZM160.662 31.8784H157.884C156.959 31.8784 156.264 31.928 155.801 32.0272C155.371 32.1264 155.156 32.3413 155.156 32.672C155.156 32.7381 155.239 32.8208 155.404 32.92C155.603 32.9861 155.702 33.2672 155.702 33.7632C155.702 34.6229 155.438 35.2843 154.908 35.7472C154.379 36.1771 153.751 36.392 153.024 36.392C152.395 36.392 151.85 36.2101 151.387 35.8464C150.957 35.4496 150.742 34.904 150.742 34.2096C150.742 33.5152 150.974 32.7712 151.436 31.9776C151.932 31.184 152.61 30.5227 153.47 29.9936C154.363 29.4645 155.371 29.2 156.496 29.2H169.243L157.091 50.1808C157.289 50.1808 157.653 50.2139 158.182 50.28C159.306 50.4123 160.199 50.4784 160.86 50.4784C162.282 50.4784 163.059 50.1477 163.192 49.4864C162.894 49.4533 162.663 49.3541 162.497 49.1888C162.332 48.9904 162.249 48.7424 162.249 48.4448C162.249 47.9157 162.497 47.4363 162.993 47.0064C163.489 46.5435 164.167 46.312 165.027 46.312C165.754 46.312 166.3 46.5269 166.664 46.9568C167.027 47.3867 167.209 47.9653 167.209 48.6928C167.209 49.4864 166.961 50.2965 166.465 51.1232C165.969 51.9499 165.258 52.6443 164.332 53.2064C163.407 53.7355 162.348 54 161.158 54H148.014L160.662 31.8784ZM175.182 54.2976C173.297 54.2976 171.726 53.6528 170.47 52.3632C169.213 51.0736 168.585 49.0565 168.585 46.312C168.585 43.8651 169.064 41.3024 170.023 38.624C171.015 35.9125 172.47 33.6309 174.388 31.7792C176.339 29.8944 178.654 28.952 181.332 28.952C182.688 28.952 183.696 29.1835 184.358 29.6464C185.019 30.1093 185.35 30.7211 185.35 31.4816V31.8288L185.895 29.2H193.038L189.466 46.064C189.334 46.56 189.268 47.0891 189.268 47.6512C189.268 49.0731 189.946 49.784 191.302 49.784C192.228 49.784 193.021 49.3541 193.682 48.4944C194.377 47.6347 194.922 46.5104 195.319 45.1216H197.402C196.179 48.6928 194.658 51.1232 192.839 52.4128C191.054 53.6693 189.252 54.2976 187.433 54.2976C186.044 54.2976 184.92 53.9173 184.06 53.1568C183.233 52.3632 182.737 51.2224 182.572 49.7344C181.613 51.0901 180.538 52.1979 179.348 53.0576C178.191 53.8843 176.802 54.2976 175.182 54.2976ZM178.406 49.4864C179.232 49.4864 180.042 49.1061 180.836 48.3456C181.663 47.552 182.225 46.4773 182.522 45.1216L184.903 33.912C184.903 33.4821 184.738 33.0688 184.407 32.672C184.077 32.2421 183.564 32.0272 182.87 32.0272C181.547 32.0272 180.357 32.8043 179.298 34.3584C178.24 35.8795 177.414 37.7312 176.818 39.9136C176.223 42.0629 175.926 43.9643 175.926 45.6176C175.926 47.2709 176.157 48.3291 176.62 48.792C177.116 49.2549 177.711 49.4864 178.406 49.4864ZM198.71 29.2H205.853L205.208 32.2752C206.332 31.2832 207.341 30.5227 208.234 29.9936C209.159 29.4645 210.151 29.2 211.21 29.2C212.268 29.2 213.094 29.5637 213.69 30.2912C214.318 31.0187 214.632 31.8949 214.632 32.92C214.632 33.8789 214.318 34.7221 213.69 35.4496C213.061 36.1771 212.185 36.5408 211.061 36.5408C210.333 36.5408 209.837 36.3755 209.573 36.0448C209.341 35.6811 209.159 35.1685 209.027 34.5072C208.928 34.0773 208.829 33.7632 208.73 33.5648C208.63 33.3664 208.448 33.2672 208.184 33.2672C207.49 33.2672 206.894 33.416 206.398 33.7136C205.935 33.9781 205.324 34.4576 204.563 35.152L200.595 54H193.453L198.71 29.2ZM222.269 26.5216C221.178 26.5216 220.252 26.1413 219.492 25.3808C218.731 24.6203 218.351 23.6944 218.351 22.6032C218.351 21.512 218.731 20.5861 219.492 19.8256C220.252 19.032 221.178 18.6352 222.269 18.6352C223.36 18.6352 224.286 19.032 225.047 19.8256C225.84 20.5861 226.237 21.512 226.237 22.6032C226.237 23.6944 225.84 24.6203 225.047 25.3808C224.286 26.1413 223.36 26.5216 222.269 26.5216ZM218.896 54.2976C217.309 54.2976 216.02 53.8016 215.028 52.8096C214.069 51.8176 213.589 50.3296 213.589 48.3456C213.589 47.5189 213.721 46.4443 213.986 45.1216L217.359 29.2H224.501L220.93 46.064C220.798 46.56 220.732 47.0891 220.732 47.6512C220.732 48.3125 220.88 48.792 221.178 49.0896C221.509 49.3541 222.038 49.4864 222.765 49.4864C223.724 49.4864 224.617 49.0896 225.444 48.296C226.27 47.4693 226.865 46.4112 227.229 45.1216H229.312C228.089 48.6928 226.518 51.1232 224.6 52.4128C222.682 53.6693 220.781 54.2976 218.896 54.2976ZM233.161 54.2976C231.277 54.2976 229.706 53.6528 228.449 52.3632C227.193 51.0736 226.565 49.0565 226.565 46.312C226.565 43.8651 227.044 41.3024 228.003 38.624C228.995 35.9125 230.45 33.6309 232.368 31.7792C234.319 29.8944 236.633 28.952 239.312 28.952C240.668 28.952 241.676 29.1835 242.337 29.6464C242.999 30.1093 243.329 30.7211 243.329 31.4816V31.8288L243.875 29.2H251.017L247.446 46.064C247.314 46.56 247.248 47.0891 247.248 47.6512C247.248 48.3125 247.397 48.792 247.694 49.0896C248.025 49.3541 248.554 49.4864 249.281 49.4864C249.744 49.4864 250.108 49.4203 250.373 49.288C249.645 51.1397 248.951 52.4459 248.289 53.2064C247.628 53.9339 246.669 54.2976 245.413 54.2976C244.057 54.2976 242.949 53.9008 242.089 53.1072C241.263 52.2805 240.75 51.1397 240.552 49.6848C238.535 52.76 236.071 54.2976 233.161 54.2976ZM236.385 49.4864C237.212 49.4864 238.022 49.1061 238.816 48.3456C239.642 47.552 240.205 46.4773 240.502 45.1216L242.883 33.912C242.883 33.4821 242.718 33.0688 242.387 32.672C242.056 32.2421 241.544 32.0272 240.849 32.0272C239.527 32.0272 238.336 32.8043 237.278 34.3584C236.22 35.8795 235.393 37.7312 234.798 39.9136C234.203 42.0629 233.905 43.9643 233.905 45.6176C233.905 47.2709 234.137 48.3291 234.6 48.792C235.096 49.2549 235.691 49.4864 236.385 49.4864Z" fill="#FFCC06"/>
</svg>
